<?xml version="1.0" encoding="UTF-8"?>
<svg version="1.1" viewBox="0 0 2000 2000" width="1280" height="1280" xmlns="http://www.w3.org/2000/svg">
<path transform="translate(0)" d="m0 0h2e3v2e3h-2e3z" fill="#FEFFFE"/>
<path transform="translate(1138,809)" d="m0 0h7l4 6 1 5v148l-5 5-20 12-49 28-26 15-28 16-6 3-5-1-6-5-1-39v-113l5-5 10-7 23-13 43-25 26-15 24-14z" fill="#0F80EF"/>
<path transform="translate(859,810)" d="m0 0h8l22 12 24 14 28 16 24 14 26 15 7 5 1 2v152l-8 8-10-4-10-6-16-9-17-10-14-8-24-14-25-14-20-12-1-4v-148l3-8z" fill="#0F7FEE"/>
<path transform="translate(999,714)" d="m0 0 5 1 25 14 22 13 21 12 26 15 23 13 14 9 2 3v6l-5 5-39 23-26 15-21 12-17 10-19 11-7 4-6-1-14-8-17-10-28-16-13-8-11-6-26-15-17-10-6-7v-5l4-5 15-9 49-28 15-9 28-16z" fill="#0F7FEE"/>
<path transform="translate(1138,809)" d="m0 0h7l3 4 1 8v78l-1 45h-5l-2-6-6 3-3 6-8 5h-2l-1 3h-10l-9-3-5-5-7-9v-6l-3-3v-2h-2v-2l-5-2-11-11-2-5-5-2-6-7-2-1v-3h2v-2l-5-2-2-3 1-3-1-3 3-1-1-6h2v-2l-20 3-5 1-1-2 9-5 4-4 21-12 24-14 26-15 24-14z" fill="#0F6DE8"/>
<path transform="translate(896,773)" d="m0 0h5l-2 6h-3v4l3-1 5 3 4-1 4 2 2-1 7 3h6l11 5 6 1 24 11 8 4 20 11 15 7 7 3 1 3 5 5 1 2v8l-2 3 2 1v1l6 1-1 8h-3l-1 3-17 10-11 2-7-1-16-10-25-14-48-28-23-13-9-6-5-6v-5l4-5 15-9z" fill="#0F6DE8"/>
<path transform="translate(1098,1108)" d="m0 0h78l8 4 5 7 1 3 1 11v15l-2 9-4 6-7 4-9 2 6 8 9 10 8 11-1 2h-19l-5-5-12-14-8-10-2-2-30-1v32h-17l-1-1v-90z" fill="#5B6A7F"/>
<path transform="translate(995,1108)" d="m0 0h79l7 4 4 5 2 5 1 20-1 13-4 8-5 4-7 2-58 1-1 29-1 1h-16z" fill="#5B6A7E"/>
<path transform="translate(859,810)" d="m0 0h8l22 12 24 14 5 3 4 4 19 11v2l4 1 7 9-7 7-9 6-8 3v2l-27 5-11 2-3 1-2-1v2l-4-1h-16v-2l-8 1-1-1-1-40v-27l1-11z" fill="#0F6DE8"/>
<path transform="translate(1303,1108)" d="m0 0h19l13 15 11 13 8 10h2l9-11 12-14 9-11 3-2h18v92h-17l-1-64-7 6-9 11-12 14-5 6-4-2-11-13-13-15-6-8h-1l-1 65h-17z" fill="#5B6A7E"/>
<path transform="translate(1213,1108)" d="m0 0h78v16l-1 1h-66v22h54v16l-1 1h-53v19h67v16l-1 1h-84v-91z" fill="#5B6A7E"/>
<path transform="translate(707,1127)" d="m0 0h42l9 2 5 5 3 5 1 4v28l-2 1h-57v11h59v16l-1 1h-58l-9-3-6-7-2-10v-32l1-9 4-6 6-5z" fill="#5B6A7F"/>
<path transform="translate(867,1100)" d="m0 0h16l1 1 1 25 42 1 8 3 5 6 2 4 1 59-1 1h-16l-1-1-1-54-40-1v55l-1 1h-16l-1-99z" fill="#5A6A80"/>
<path transform="translate(794,1127)" d="m0 0h60l1 1v15l-1 1-57 1v37l58 1v16l-1 1h-59l-7-2-7-8-2-9v-34l2-10 7-8z" fill="#5B6A7F"/>
<path transform="translate(610,1108)" d="m0 0h70l1 2-1 15-36 1-1 74h-17v-75h-37l-1-16z" fill="#5B6A7E"/>
<path transform="translate(1012,1125)" d="m0 0h57l1 1v25l-2 1h-55l-1-1z" fill="#FEFFFE"/>
<path transform="translate(1116,1125)" d="m0 0h56l1 1v24l-1 1h-56l-1-1v-24z" fill="#FEFFFE"/>
<path transform="translate(774,1245)" d="m0 0h31l2 2v29l-2 2-4 1h-27l-1-33z" fill="#576A83"/>
<path transform="translate(1260,1245)" d="m0 0h29l2 3v27l-3 3-4 1h-22l-3-2-1-3v-27z" fill="#5A6A7F"/>
<path transform="translate(779,1250)" d="m0 0h22l1 1v22l-2 1h-21z" fill="#FEFFFE"/>
<path transform="translate(1192,1250)" d="m0 0h22l1 1v22l-2 1h-20l-1-1z" fill="#FEFFFE"/>
<path transform="translate(708,1250)" d="m0 0h22l1 1v22l-2 1h-20l-1-1z" fill="#FEFFFE"/>
<path transform="translate(1189,1245)" d="m0 0h29l2 3v28l-7 3h-22l-4-4v-26zm3 5v23l1 1h20l2-1v-22l-1-1z" fill="#4F6C8F"/>
<path transform="translate(705,1245)" d="m0 0h29l2 3v28l-2 2-5 1h-22l-4-4v-25zm3 5v23l1 1h20l2-1v-22l-1-1z" fill="#4F6C90"/>
<path transform="translate(1264,1250)" d="m0 0h21l1 2v20l-2 2h-20l-1-1v-22z" fill="#FEFFFE"/>
<path transform="translate(1e3 1245)" d="m0 0h27l2 1v8l-4-3-3-1h-20v8h21l6 2 1 2v12l-1 3-5 2h-20l-6-2-1-1v-5h3l2 2h24l-1-10h-24l-4-3v-10l1-4z" fill="#556B87"/>
<path transform="translate(846,1245)" d="m0 0h32l-2 5h-25v11h21v5h-20l-1 8h26v4l-4 1h-27z" fill="#566B85"/>
<path transform="translate(709,1144)" d="m0 0h40l1 1v9l-1 1h-40l-1-1v-8z" fill="#FEFFFE"/>
<path transform="translate(1147,1244)" d="m0 0 4 2-2 4-27 1v22l28 1 1 2-2 3h-29l-3-2-1-4v-23l1-4 2-1z" fill="#566A86"/>
<path transform="translate(663,1244)" d="m0 0 4 2-2 4-27 1v22l28 1-1 5h-29l-3-1-1-9v-22l3-2z" fill="#5C6A7E"/>
<path transform="translate(1330,1244)" d="m0 0 5 1v29h29l-1 4-8 1h-25z" fill="#436A9F"/>
<path transform="translate(1219,1248)" d="m0 0h1v28l-7 3h-22l-2-2 3-2-2-4v-9l1-11h1l1 22h22v-22h1l1 8h1z" fill="#586A83"/>
<path transform="translate(774,1249)" d="m0 0 1 3 4-1v23l23-1v-21h1l1 5h1v15 1l-2 2-9 1v2l2 1h-22z" fill="#5A6A7F"/>
<path transform="translate(735,1248)" d="m0 0h1v28l-2 2-5 1h-22l-2-2 3-2-2-4 1-21h1l1 23h22v-13l3-1z" fill="#566A85"/>
<path transform="translate(1260,1245)" d="m0 0h29l2 5-1 23h-1l-1-8h-1l-1-12-1-3-21 1-1 1v22l1 2-3-1-1-20h-1z" fill="#536A89"/>
<path transform="translate(846,1245)" d="m0 0h32l-2 5h-18l-7 1-1 8-2 1v-2h-2z" fill="#416DA3"/>
<path transform="translate(959,1244)" d="m0 0h5l1 3v32l-5 1-2-1z" fill="#586A82"/>
<path transform="translate(1e3 1245)" d="m0 0h27l2 1v8l-4-3-3-1h-20v6l-3-4-1-6z" fill="#506C8E"/>
<path transform="translate(705,1245)" d="m0 0 3 2v3l-1 21 1 3 2 2-6 1-1-2v-25z" fill="#216CD0"/>
<path transform="translate(1290,1250)" d="m0 0h1v25l-3 3-7 1-3-2v-2l6-2 1-1 1-19h1l1 9h1z" fill="#4C6B93"/>
<path transform="translate(1189,1245)" d="m0 0 2 2v26l3 3-6 1-1-2v-26z" fill="#236CCD"/>
<path transform="translate(850,1261)" d="m0 0h22v5h-23z" fill="#506C8E"/>
<path transform="translate(801,1246)" d="m0 0 4 1 1 1v27l-2 2h-5l2 2-7-1v-2l-2-1 11-1v-6l1-4h-1l-1-15-4-1h3z" fill="#0F6DE8"/>
<path transform="translate(632,1247)" d="m0 0 3 1 1 6v17l1 3 2 2-2 1-1 2-3-1-1-9z" fill="#246DCB"/>
<path transform="translate(663,1244)" d="m0 0 4 2-2 4h-10l-11-1-3-3z" fill="#0F70E9"/>
<path transform="translate(1147,1244)" d="m0 0 4 2-2 4h-11l-10-1-3-3z" fill="#526B8B"/>
<path transform="translate(1285,1246)" d="m0 0 4 1 2 1-1 25h-1l-1-8h-1l-1-12-1-3h-11v-1l11-1z" fill="#136FE4"/>
<path transform="translate(1330,1244)" d="m0 0 5 1-1 3h-1l-1 5v24l8-1v2h12v1h-22z" fill="#556B87"/>
<path transform="translate(1336,1275)" d="m0 0h27v3l-11 1-12-1v-2z" fill="#106DE6"/>
<path transform="translate(664,1274)" d="m0 0h2l-1 5-22-1v-3z" fill="#146DE2"/>
<path transform="translate(1259,1246)" d="m0 0 2 6v23l-2 2-1-3v-27z" fill="#536A89"/>
<path transform="translate(1119,1245)" d="m0 0h21v1l-11 1v1l9 1v1l-18 1-3-2v-3z" fill="#596A81"/>
<path transform="translate(635,1245)" d="m0 0h20v1l-10 1v1l10 1v1l-19 1-1-3h-2v-2z" fill="#596A81"/>
<path transform="translate(1118,1248)" d="m0 0 2 2-1 16v7h-3v-23z" fill="#236DCD"/>
<path transform="translate(1333,1246)" d="m0 0 2 2-1 22-3 1v-18z" fill="#116EE7"/>
<path transform="translate(1130,1275)" d="m0 0h19v4l-24-1 2-2z" fill="#116DE6"/>
<path transform="translate(1260,1245)" d="m0 0 4 2h-3l3 4-1 1v22l1 2-3-1-1-20h-1z" fill="#0F6DE8"/>
<path transform="translate(1e3 1270)" d="m0 0 4 3v2l6 1-3 3-7-2-1-1v-5z" fill="#306DBA"/>
<path transform="translate(802,1252)" d="m0 0h1l1 5h1v15l-3 1z" fill="#5C6A7E"/>
<path transform="translate(1140,1245)" d="m0 0 3 1-4 2-1 1h-10l-3-3z" fill="#106DE8"/>
<path transform="translate(865,1245)" d="m0 0h13l-1 4h-8l-4-2z" fill="#586B83"/>
<path transform="translate(871,788)" d="m0 0 2 1-3 1-2 12-3-3v-5l4-5z" fill="#0F80EF"/>
<path transform="translate(1217,1247)" d="m0 0 2 1v13l-3-1v-10z" fill="#106DE8"/>
<path transform="translate(733,1247)" d="m0 0 2 1v12h-3v-10z" fill="#106DE8"/>
<path transform="translate(847,1248)" d="m0 0 4 2-1 9-2 1-1-2z" fill="#106DE8"/>
<path transform="translate(663,1244)" d="m0 0 4 2-1 3h-9l2-4z" fill="#516B8C"/>
<path transform="translate(869,1275)" d="m0 0h6v3l-7 1-2-2z" fill="#1270E5"/>
<path transform="translate(775,1248)" d="m0 0 4 2-1 19h-1v-17h-2z" fill="#106DE8"/>
<path transform="translate(1335,1276)" d="m0 0h5v2h12v1h-17z" fill="#596A82"/>
</svg>
